<svg xmlns="http://www.w3.org/2000/svg" xmlns:xlink="http://www.w3.org/1999/xlink" width="500" zoomAndPan="magnify" viewBox="0 0 375 74.999997" height="100" preserveAspectRatio="xMidYMid meet" version="1.0"><defs><g/></defs><g fill="#000000" fill-opacity="1"><g transform="translate(0.679695, 36.182858)"><g><path d="M 54.34375 0 C 55.246094 0 55.695312 -0.449219 55.695312 -1.351562 L 55.695312 -21.199219 C 55.695312 -22.097656 55.246094 -22.546875 54.34375 -22.546875 L 40.046875 -22.546875 C 39.195312 -22.546875 38.746094 -22.097656 38.746094 -21.199219 L 38.746094 -5.898438 L 29.898438 -5.898438 C 25.796875 -5.898438 23.996094 -8.199219 23.996094 -15 L 23.996094 -20.449219 C 23.996094 -26.597656 25.546875 -28.246094 29.898438 -28.246094 L 53.042969 -28.246094 C 53.945312 -28.246094 54.394531 -28.695312 54.394531 -29.597656 L 54.394531 -32.796875 C 54.394531 -33.648438 53.945312 -34.097656 53.042969 -34.097656 L 18.199219 -34.097656 C 8.347656 -34.097656 1.800781 -26.847656 1.800781 -17.046875 C 1.800781 -7.148438 8.75 0 18.199219 0 Z M 54.34375 0 "/></g></g></g><g fill="#000000" fill-opacity="1"><g transform="translate(59.270625, 36.182858)"><g><path d="M 69.644531 0 C 70.441406 0 70.792969 -0.351562 70.792969 -0.800781 C 70.792969 -1.050781 70.691406 -1.449219 70.394531 -1.75 L 39.496094 -33.148438 C 38.894531 -33.746094 38.195312 -34.097656 37.296875 -34.097656 L 33.996094 -34.097656 C 33.195312 -34.097656 32.496094 -33.746094 31.898438 -33.148438 L 0.550781 -1.648438 C 0.25 -1.398438 0.148438 -1.050781 0.148438 -0.851562 C 0.148438 -0.351562 0.550781 0 1.101562 0 L 34.148438 0 C 35.046875 0 35.496094 -0.449219 35.496094 -1.351562 L 35.496094 -4.550781 C 35.496094 -5.449219 35.046875 -5.898438 34.148438 -5.898438 L 11.449219 -5.898438 L 26.746094 -21.046875 L 46.09375 -1 C 46.746094 -0.351562 47.546875 0 48.695312 0 Z M 69.644531 0 "/></g></g></g><g fill="#000000" fill-opacity="1"><g transform="translate(130.309624, 36.182858)"><g><path d="M 49.59375 0 C 50.445312 0 50.894531 -0.449219 50.894531 -1.351562 L 50.894531 -4.550781 C 50.894531 -5.449219 50.445312 -5.898438 49.59375 -5.898438 L 29.945312 -5.898438 C 25.546875 -5.898438 24.046875 -8.050781 24.046875 -13.25 L 24.046875 -32.796875 C 24.046875 -33.648438 23.597656 -34.097656 22.699219 -34.097656 L 3.550781 -34.097656 C 2.648438 -34.097656 2.25 -33.648438 2.25 -32.796875 L 2.25 -14.097656 C 2.25 -5.898438 6.949219 0 16.898438 0 Z M 49.59375 0 "/></g></g></g><g fill="#000000" fill-opacity="1"><g transform="translate(181.601685, 36.182858)"><g><path d="M 69.644531 0 C 70.441406 0 70.792969 -0.351562 70.792969 -0.800781 C 70.792969 -1.050781 70.691406 -1.449219 70.394531 -1.75 L 39.496094 -33.148438 C 38.894531 -33.746094 38.195312 -34.097656 37.296875 -34.097656 L 33.996094 -34.097656 C 33.195312 -34.097656 32.496094 -33.746094 31.898438 -33.148438 L 0.550781 -1.648438 C 0.25 -1.398438 0.148438 -1.050781 0.148438 -0.851562 C 0.148438 -0.351562 0.550781 0 1.101562 0 L 34.148438 0 C 35.046875 0 35.496094 -0.449219 35.496094 -1.351562 L 35.496094 -4.550781 C 35.496094 -5.449219 35.046875 -5.898438 34.148438 -5.898438 L 11.449219 -5.898438 L 26.746094 -21.046875 L 46.09375 -1 C 46.746094 -0.351562 47.546875 0 48.695312 0 Z M 69.644531 0 "/></g></g></g><g fill="#000000" fill-opacity="1"><g transform="translate(252.640673, 36.182858)"><g><path d="M 62.84375 0 C 63.695312 0 64.144531 -0.398438 64.144531 -0.949219 C 64.144531 -1.25 63.945312 -1.601562 63.59375 -1.898438 L 41.945312 -21.246094 L 57.195312 -32.398438 C 57.542969 -32.648438 57.746094 -32.996094 57.746094 -33.296875 C 57.746094 -33.746094 57.394531 -34.097656 56.695312 -34.097656 L 53.042969 -34.097656 C 51.695312 -34.097656 50.746094 -33.746094 49.84375 -33.097656 L 38.144531 -24.648438 L 28.847656 -32.996094 C 28.046875 -33.695312 27.148438 -34.097656 25.949219 -34.097656 L 5.097656 -34.097656 C 4.25 -34.097656 3.800781 -33.695312 3.800781 -33.195312 C 3.800781 -32.847656 3.949219 -32.496094 4.300781 -32.195312 L 21.847656 -16.546875 L 1.601562 -1.75 C 1.25 -1.449219 1.050781 -1.101562 1.050781 -0.800781 C 1.050781 -0.351562 1.398438 0 2.101562 0 L 5.75 0 C 7.097656 0 8.050781 -0.351562 8.949219 -1 L 25.597656 -13.097656 L 39.046875 -1.101562 C 39.847656 -0.398438 40.796875 0 41.945312 0 Z M 62.84375 0 "/></g></g></g><g fill="#000000" fill-opacity="1"><g transform="translate(317.38065, 36.182858)"><g><path d="M 37.046875 0 C 37.945312 0 38.394531 -0.449219 38.394531 -1.351562 L 38.394531 -13.546875 L 56.496094 -32.695312 C 56.644531 -32.847656 56.746094 -33.148438 56.746094 -33.347656 C 56.746094 -33.746094 56.445312 -34.097656 55.792969 -34.097656 L 52.894531 -34.097656 C 51.894531 -34.097656 51.394531 -33.898438 50.695312 -33.148438 L 36.847656 -18.5 L 23.546875 -33.097656 C 22.949219 -33.746094 22.199219 -34.097656 21.296875 -34.097656 L 1.148438 -34.097656 C 0.648438 -34.097656 0.148438 -33.796875 0.148438 -33.296875 C 0.148438 -32.996094 0.300781 -32.695312 0.601562 -32.398438 L 18.546875 -13.25 L 18.546875 -1.351562 C 18.546875 -0.449219 19 0 19.847656 0 Z M 37.046875 0 "/></g></g></g><g fill="#000000" fill-opacity="1"><g transform="translate(56.64844, 69.182855)"><g><path d="M 32.554688 0 C 32.871094 0 33.03125 -0.210938 33.03125 -0.421875 C 33.03125 -0.554688 32.976562 -0.738281 32.847656 -0.84375 L 25.574219 -8.296875 C 28.394531 -8.71875 30.710938 -10.40625 30.710938 -13.378906 C 30.710938 -16.09375 28.316406 -17.964844 25.128906 -17.964844 L 2.105469 -17.964844 C 1.632812 -17.964844 1.394531 -17.726562 1.394531 -17.277344 L 1.394531 -0.710938 C 1.394531 -0.238281 1.632812 0 2.105469 0 L 11.140625 0 C 11.617188 0 11.851562 -0.238281 11.851562 -0.710938 L 11.851562 -14.882812 L 17.726562 -14.882812 C 19.386719 -14.882812 20.230469 -14.25 20.230469 -13.117188 C 20.230469 -11.984375 19.386719 -11.328125 17.726562 -11.328125 L 14.117188 -11.328125 C 13.644531 -11.328125 13.433594 -11.089844 13.433594 -10.640625 L 13.433594 -9.824219 C 13.433594 -9.351562 13.589844 -9.140625 13.882812 -8.851562 L 21.808594 -0.710938 C 22.285156 -0.210938 22.890625 0 23.546875 0 Z M 32.554688 0 "/></g></g></g><g fill="#000000" fill-opacity="1"><g transform="translate(89.905701, 69.182855)"><g><path d="M 27.816406 -8.246094 C 28.261719 -8.246094 28.5 -8.402344 28.5 -8.71875 L 28.5 -10.851562 C 28.5 -11.167969 28.261719 -11.328125 27.816406 -11.328125 L 15.222656 -11.328125 C 14.75 -11.328125 14.511719 -11.089844 14.511719 -10.640625 L 14.511719 -8.929688 C 14.511719 -8.480469 14.75 -8.246094 15.222656 -8.246094 Z M 28.078125 0 C 28.550781 0 28.789062 -0.238281 28.789062 -0.710938 L 28.789062 -2.398438 C 28.789062 -2.871094 28.550781 -3.109375 28.078125 -3.109375 L 15.75 -3.109375 C 13.589844 -3.109375 12.644531 -4.320312 12.644531 -7.902344 L 12.644531 -10.773438 C 12.644531 -14.011719 13.460938 -14.882812 15.75 -14.882812 L 28 -14.882812 C 28.472656 -14.882812 28.710938 -15.121094 28.710938 -15.59375 L 28.710938 -17.277344 C 28.710938 -17.726562 28.472656 -17.964844 28 -17.964844 L 9.585938 -17.964844 C 4.398438 -17.964844 0.949219 -14.144531 0.949219 -8.980469 C 0.949219 -3.765625 4.609375 0 9.585938 0 Z M 28.078125 0 "/></g></g></g><g fill="#000000" fill-opacity="1"><g transform="translate(119.687151, 69.182855)"><g><path d="M 35.269531 0 C 35.742188 0 35.980469 -0.238281 35.980469 -0.710938 L 35.980469 -17.277344 C 35.980469 -17.726562 35.742188 -17.964844 35.269531 -17.964844 L 33.371094 -17.964844 C 32.714844 -17.964844 32.054688 -17.753906 31.503906 -17.277344 L 18.304688 -6.109375 L 5.953125 -17.277344 C 5.425781 -17.726562 4.847656 -17.964844 4.265625 -17.964844 L 2 -17.964844 C 1.527344 -17.964844 1.289062 -17.726562 1.289062 -17.277344 L 1.289062 -0.710938 C 1.289062 -0.238281 1.527344 0 2 0 L 4.453125 0 C 4.925781 0 5.164062 -0.238281 5.164062 -0.710938 L 5.164062 -7.375 L 13.484375 -0.710938 C 14.09375 -0.210938 14.722656 0 15.25 0 L 16.777344 0 C 17.304688 0 17.886719 -0.210938 18.410156 -0.710938 L 25.839844 -7.375 L 25.839844 -0.710938 C 25.839844 -0.238281 26.078125 0 26.550781 0 Z M 35.269531 0 "/></g></g></g><g fill="#000000" fill-opacity="1"><g transform="translate(157.052199, 69.182855)"><g><path d="M 22.519531 0 C 27.710938 0 31.214844 -3.925781 31.214844 -8.980469 C 31.214844 -14.117188 27.761719 -17.964844 22.519531 -17.964844 L 9.613281 -17.964844 C 4.398438 -17.964844 0.949219 -14.195312 0.949219 -8.980469 C 0.949219 -3.898438 4.476562 0 9.613281 0 Z M 20.703125 -7.902344 C 20.703125 -4.320312 19.753906 -3.109375 17.59375 -3.109375 L 14.011719 -3.109375 C 12.011719 -3.109375 11.117188 -4.347656 11.117188 -7.902344 L 11.117188 -10.773438 C 11.117188 -13.960938 11.933594 -14.882812 14.011719 -14.882812 L 17.59375 -14.882812 C 19.886719 -14.882812 20.703125 -14.011719 20.703125 -10.773438 Z M 20.703125 -7.902344 "/></g></g></g><g fill="#000000" fill-opacity="1"><g transform="translate(189.177192, 69.182855)"><g><path d="M 37.085938 -17.09375 C 37.246094 -17.253906 37.296875 -17.410156 37.296875 -17.515625 C 37.296875 -17.78125 37.085938 -17.964844 36.796875 -17.964844 L 35.296875 -17.964844 C 34.714844 -17.964844 34.292969 -17.78125 33.925781 -17.4375 L 23.3125 -6.875 L 13.089844 -17.4375 C 12.75 -17.78125 12.328125 -17.964844 11.722656 -17.964844 L 0.683594 -17.964844 C 0.261719 -17.964844 0.078125 -17.78125 0.078125 -17.542969 C 0.078125 -17.410156 0.132812 -17.226562 0.316406 -17.066406 L 16.566406 -0.527344 C 16.882812 -0.183594 17.253906 0 17.726562 0 L 19.464844 0 C 19.886719 0 20.253906 -0.183594 20.570312 -0.527344 Z M 37.085938 -17.09375 "/></g></g></g><g fill="#000000" fill-opacity="1"><g transform="translate(226.594906, 69.182855)"><g><path d="M 36.691406 0 C 37.113281 0 37.296875 -0.183594 37.296875 -0.421875 C 37.296875 -0.554688 37.246094 -0.765625 37.085938 -0.921875 L 20.808594 -17.464844 C 20.492188 -17.78125 20.125 -17.964844 19.648438 -17.964844 L 17.910156 -17.964844 C 17.488281 -17.964844 17.121094 -17.78125 16.804688 -17.464844 L 0.289062 -0.871094 C 0.132812 -0.738281 0.078125 -0.554688 0.078125 -0.449219 C 0.078125 -0.183594 0.289062 0 0.578125 0 L 17.988281 0 C 18.464844 0 18.703125 -0.238281 18.703125 -0.710938 L 18.703125 -2.398438 C 18.703125 -2.871094 18.464844 -3.109375 17.988281 -3.109375 L 6.03125 -3.109375 L 14.09375 -11.089844 L 24.285156 -0.527344 C 24.628906 -0.183594 25.050781 0 25.65625 0 Z M 36.691406 0 "/></g></g></g><g fill="#000000" fill-opacity="1"><g transform="translate(264.01262, 69.182855)"><g><path d="M 26.128906 0 C 26.578125 0 26.8125 -0.238281 26.8125 -0.710938 L 26.8125 -2.398438 C 26.8125 -2.871094 26.578125 -3.109375 26.128906 -3.109375 L 15.777344 -3.109375 C 13.460938 -3.109375 12.667969 -4.242188 12.667969 -6.980469 L 12.667969 -17.277344 C 12.667969 -17.726562 12.433594 -17.964844 11.957031 -17.964844 L 1.871094 -17.964844 C 1.394531 -17.964844 1.183594 -17.726562 1.183594 -17.277344 L 1.183594 -7.429688 C 1.183594 -3.109375 3.660156 0 8.902344 0 Z M 26.128906 0 "/></g></g></g><g fill="#000000" fill-opacity="1"><g transform="translate(291.029211, 69.182855)"><g><path d="M 21.492188 0 C 24.863281 0 26.578125 -2.082031 26.578125 -4.425781 C 26.578125 -6.347656 26.078125 -7.796875 23.363281 -9.0625 L 10.984375 -14.882812 L 25.261719 -14.882812 C 25.734375 -14.882812 25.972656 -15.121094 25.972656 -15.59375 L 25.972656 -17.277344 C 25.972656 -17.726562 25.734375 -17.964844 25.261719 -17.964844 L 5.875 -17.964844 C 2.476562 -17.964844 0.765625 -15.882812 0.765625 -13.539062 C 0.765625 -11.640625 1.289062 -10.195312 3.976562 -8.929688 L 16.382812 -3.109375 L 1.605469 -3.109375 C 1.160156 -3.109375 0.921875 -2.871094 0.921875 -2.398438 L 0.921875 -0.710938 C 0.921875 -0.238281 1.160156 0 1.605469 0 Z M 21.492188 0 "/></g></g></g></svg>