<svg xmlns="http://www.w3.org/2000/svg" xmlns:xlink="http://www.w3.org/1999/xlink" width="50" zoomAndPan="magnify" viewBox="0 0 37.5 37.499999" height="50" preserveAspectRatio="xMidYMid meet" version="1.0"><defs><g/></defs><g fill="#5271ff" fill-opacity="1"><g transform="translate(-0.899999, 30.064773)"><g><path d="M 36.53125 0 C 37.136719 0 37.4375 -0.300781 37.4375 -0.90625 L 37.4375 -14.25 C 37.4375 -14.855469 37.136719 -15.15625 36.53125 -15.15625 L 26.917969 -15.15625 C 26.347656 -15.15625 26.046875 -14.855469 26.046875 -14.25 L 26.046875 -3.964844 L 20.097656 -3.964844 C 17.339844 -3.964844 16.132812 -5.511719 16.132812 -10.082031 L 16.132812 -13.746094 C 16.132812 -17.878906 17.171875 -18.988281 20.097656 -18.988281 L 35.65625 -18.988281 C 36.261719 -18.988281 36.566406 -19.289062 36.566406 -19.894531 L 36.566406 -22.046875 C 36.566406 -22.617188 36.261719 -22.921875 35.65625 -22.921875 L 12.234375 -22.921875 C 5.613281 -22.921875 1.210938 -18.046875 1.210938 -11.460938 C 1.210938 -4.804688 5.882812 0 12.234375 0 Z M 36.53125 0 "/></g></g></g></svg>