<svg xmlns="http://www.w3.org/2000/svg" xmlns:xlink="http://www.w3.org/1999/xlink" width="100" zoomAndPan="magnify" viewBox="0 0 75 30.000001" height="40" preserveAspectRatio="xMidYMid meet" version="1.0"><defs><g/><clipPath id="1e36f285d8"><path d="M 46.363281 16.105469 L 47.089844 16.105469 L 47.089844 16.832031 L 46.363281 16.832031 Z M 46.363281 16.105469 " clip-rule="nonzero"/></clipPath></defs><g fill="#252525" fill-opacity="1"><g transform="translate(4.846636, 18.151472)"><g><path d="M 8.5625 -0.984375 C 7.800781 -0.273438 6.921875 0.078125 5.921875 0.078125 C 5.171875 0.078125 4.460938 -0.0859375 3.796875 -0.421875 C 3.128906 -0.753906 2.539062 -1.203125 2.03125 -1.765625 C 1.53125 -2.335938 1.128906 -3 0.828125 -3.75 C 0.535156 -4.507812 0.390625 -5.304688 0.390625 -6.140625 C 0.390625 -6.992188 0.539062 -7.785156 0.84375 -8.515625 C 1.144531 -9.253906 1.554688 -9.890625 2.078125 -10.421875 C 2.609375 -10.960938 3.234375 -11.390625 3.953125 -11.703125 C 4.671875 -12.015625 5.4375 -12.171875 6.25 -12.171875 C 6.757812 -12.171875 7.242188 -12.109375 7.703125 -11.984375 C 8.171875 -11.867188 8.601562 -11.695312 9 -11.46875 C 9.40625 -11.238281 9.765625 -10.960938 10.078125 -10.640625 C 10.390625 -10.316406 10.644531 -9.945312 10.84375 -9.53125 L 8.375 -7.640625 C 8.175781 -8.117188 7.867188 -8.503906 7.453125 -8.796875 C 7.035156 -9.085938 6.59375 -9.234375 6.125 -9.234375 C 5.789062 -9.234375 5.476562 -9.148438 5.1875 -8.984375 C 4.894531 -8.828125 4.644531 -8.609375 4.4375 -8.328125 C 4.226562 -8.046875 4.0625 -7.707031 3.9375 -7.3125 C 3.820312 -6.925781 3.765625 -6.5 3.765625 -6.03125 C 3.765625 -5.550781 3.820312 -5.117188 3.9375 -4.734375 C 4.0625 -4.347656 4.226562 -4.015625 4.4375 -3.734375 C 4.65625 -3.460938 4.914062 -3.25 5.21875 -3.09375 C 5.519531 -2.9375 5.851562 -2.859375 6.21875 -2.859375 C 6.625 -2.859375 7.015625 -2.957031 7.390625 -3.15625 C 7.773438 -3.363281 8.132812 -3.660156 8.46875 -4.046875 L 6.328125 -4.046875 L 6.328125 -6.4375 L 11.3125 -6.4375 L 11.3125 0 L 8.5625 0 Z M 8.5625 -0.984375 "/></g></g></g><g fill="#252525" fill-opacity="1"><g transform="translate(16.406474, 18.151472)"><g><path d="M -0.140625 0 L 4.375 -12.09375 L 7.0625 -12.09375 L 11.5625 0 L 8.0625 0 L 7.328125 -2.375 L 4.109375 -2.375 L 3.390625 0 Z M 5.71875 -8.640625 L 4.59375 -4.578125 L 6.796875 -4.578125 Z M 5.71875 -8.640625 "/></g></g></g><g fill="#252525" fill-opacity="1"><g transform="translate(27.489611, 18.151472)"><g><path d="M 1.03125 0 L 1.03125 -12.09375 L 4.359375 -12.09375 L 4.359375 -2.890625 L 9.84375 -2.890625 L 9.84375 0 Z M 1.03125 0 "/></g></g></g><g fill="#252525" fill-opacity="1"><g transform="translate(37.159676, 18.151472)"><g><path d="M -0.140625 0 L 4.375 -12.09375 L 7.0625 -12.09375 L 11.5625 0 L 8.0625 0 L 7.328125 -2.375 L 4.109375 -2.375 L 3.390625 0 Z M 5.71875 -8.640625 L 4.59375 -4.578125 L 6.796875 -4.578125 Z M 5.71875 -8.640625 "/></g></g></g><g fill="#252525" fill-opacity="1"><g transform="translate(48.242813, 18.151472)"><g><path d="M 3.390625 -12.09375 L 5.59375 -8.28125 L 7.78125 -12.09375 L 11.359375 -12.09375 L 7.328125 -5.953125 L 11.21875 0 L 7.640625 0 L 5.59375 -3.640625 L 3.53125 0 L -0.0625 0 L 3.828125 -5.953125 L -0.203125 -12.09375 Z M 3.390625 -12.09375 "/></g></g></g><g fill="#252525" fill-opacity="1"><g transform="translate(59.053555, 18.151472)"><g><path d="M 3.375 -12.09375 L 5.53125 -6.859375 L 7.75 -12.09375 L 11.359375 -12.09375 L 7.1875 -4 L 7.1875 0 L 3.890625 0 L 3.890625 -4.03125 L -0.21875 -12.09375 Z M 3.375 -12.09375 "/></g></g></g><g clip-path="url(#1e36f285d8)"><path fill="#252525" d="M 46.726562 16.105469 C 46.527344 16.105469 46.363281 16.269531 46.363281 16.46875 C 46.363281 16.667969 46.527344 16.832031 46.726562 16.832031 C 46.925781 16.832031 47.089844 16.667969 47.089844 16.46875 C 47.089844 16.269531 46.925781 16.105469 46.726562 16.105469 Z M 46.726562 16.179688 C 46.886719 16.179688 47.019531 16.308594 47.019531 16.46875 C 47.019531 16.628906 46.886719 16.757812 46.726562 16.757812 C 46.566406 16.757812 46.4375 16.628906 46.4375 16.46875 C 46.4375 16.308594 46.566406 16.179688 46.726562 16.179688 Z M 46.617188 16.324219 L 46.617188 16.613281 L 46.679688 16.613281 L 46.679688 16.507812 L 46.726562 16.507812 L 46.78125 16.613281 L 46.84375 16.613281 L 46.84375 16.609375 L 46.78125 16.492188 C 46.789062 16.488281 46.796875 16.484375 46.804688 16.480469 C 46.808594 16.476562 46.816406 16.46875 46.820312 16.460938 C 46.824219 16.457031 46.828125 16.449219 46.832031 16.441406 C 46.832031 16.429688 46.832031 16.421875 46.832031 16.410156 C 46.832031 16.398438 46.832031 16.382812 46.828125 16.375 C 46.820312 16.363281 46.816406 16.351562 46.804688 16.347656 C 46.796875 16.339844 46.785156 16.332031 46.773438 16.328125 C 46.757812 16.324219 46.742188 16.324219 46.726562 16.324219 Z M 46.679688 16.371094 L 46.726562 16.371094 C 46.742188 16.371094 46.753906 16.375 46.761719 16.382812 C 46.769531 16.390625 46.773438 16.402344 46.773438 16.417969 C 46.773438 16.421875 46.773438 16.429688 46.769531 16.433594 C 46.769531 16.4375 46.765625 16.445312 46.761719 16.449219 C 46.757812 16.449219 46.753906 16.453125 46.746094 16.457031 C 46.742188 16.457031 46.734375 16.460938 46.726562 16.460938 L 46.679688 16.460938 Z M 46.679688 16.371094 " fill-opacity="1" fill-rule="nonzero"/></g><g fill="#be1e2d" fill-opacity="1"><g transform="translate(18.361024, 23.483925)"><g><path d="M 1.5 0 L 1.140625 -0.59375 C 1.128906 -0.59375 1.101562 -0.59375 1.0625 -0.59375 L 0.59375 -0.59375 L 0.59375 0 L 0.265625 0 L 0.265625 -1.96875 L 1.0625 -1.96875 C 1.3125 -1.96875 1.503906 -1.90625 1.640625 -1.78125 C 1.773438 -1.664062 1.84375 -1.503906 1.84375 -1.296875 C 1.84375 -1.140625 1.804688 -1.003906 1.734375 -0.890625 C 1.671875 -0.785156 1.570312 -0.707031 1.4375 -0.65625 L 1.890625 0 Z M 0.59375 -0.890625 L 1.0625 -0.890625 C 1.375 -0.890625 1.53125 -1.019531 1.53125 -1.28125 C 1.53125 -1.539062 1.375 -1.671875 1.0625 -1.671875 L 0.59375 -1.671875 Z M 0.59375 -0.890625 "/></g></g></g><g fill="#be1e2d" fill-opacity="1"><g transform="translate(21.104624, 23.483925)"><g><path d="M 1.671875 -1.671875 L 0.59375 -1.671875 L 0.59375 -1.140625 L 1.546875 -1.140625 L 1.546875 -0.84375 L 0.59375 -0.84375 L 0.59375 -0.296875 L 1.703125 -0.296875 L 1.703125 0 L 0.265625 0 L 0.265625 -1.96875 L 1.671875 -1.96875 Z M 1.671875 -1.671875 "/></g></g></g><g fill="#be1e2d" fill-opacity="1"><g transform="translate(23.659323, 23.483925)"><g><path d="M 2.34375 0 L 2.03125 0 L 2.03125 -1.46875 L 1.40625 -0.203125 L 1.1875 -0.203125 L 0.578125 -1.46875 L 0.578125 0 L 0.265625 0 L 0.265625 -1.96875 L 0.65625 -1.96875 L 1.296875 -0.65625 L 1.953125 -1.96875 L 2.34375 -1.96875 Z M 2.34375 0 "/></g></g></g><g fill="#be1e2d" fill-opacity="1"><g transform="translate(26.972451, 23.483925)"><g><path d="M 0.390625 -1.6875 C 0.597656 -1.882812 0.847656 -1.984375 1.140625 -1.984375 C 1.429688 -1.984375 1.675781 -1.882812 1.875 -1.6875 C 2.082031 -1.5 2.1875 -1.265625 2.1875 -0.984375 C 2.1875 -0.703125 2.082031 -0.460938 1.875 -0.265625 C 1.675781 -0.078125 1.429688 0.015625 1.140625 0.015625 C 0.847656 0.015625 0.597656 -0.078125 0.390625 -0.265625 C 0.191406 -0.460938 0.09375 -0.703125 0.09375 -0.984375 C 0.09375 -1.265625 0.191406 -1.5 0.390625 -1.6875 Z M 1.140625 -1.671875 C 0.941406 -1.671875 0.773438 -1.601562 0.640625 -1.46875 C 0.503906 -1.34375 0.4375 -1.179688 0.4375 -0.984375 C 0.4375 -0.785156 0.503906 -0.617188 0.640625 -0.484375 C 0.785156 -0.347656 0.953125 -0.28125 1.140625 -0.28125 C 1.335938 -0.28125 1.503906 -0.347656 1.640625 -0.484375 C 1.773438 -0.617188 1.84375 -0.785156 1.84375 -0.984375 C 1.84375 -1.179688 1.773438 -1.34375 1.640625 -1.46875 C 1.503906 -1.601562 1.335938 -1.671875 1.140625 -1.671875 Z M 1.140625 -1.671875 "/></g></g></g><g fill="#be1e2d" fill-opacity="1"><g transform="translate(29.961344, 23.483925)"><g><path d="M 1.140625 0 L 0.796875 0 L 0.015625 -1.96875 L 0.359375 -1.96875 L 0.96875 -0.375 L 1.59375 -1.96875 L 1.9375 -1.96875 Z M 1.140625 0 "/></g></g></g><g fill="#be1e2d" fill-opacity="1"><g transform="translate(32.6119, 23.483925)"><g><path d="M 1.53125 -0.4375 L 0.53125 -0.4375 L 0.34375 0 L 0 0 L 0.875 -1.96875 L 1.21875 -1.96875 L 2.078125 0 L 1.71875 0 Z M 1.40625 -0.734375 L 1.03125 -1.609375 L 0.65625 -0.734375 Z M 1.40625 -0.734375 "/></g></g></g><g fill="#be1e2d" fill-opacity="1"><g transform="translate(35.397792, 23.483925)"><g><path d="M 0.59375 -0.296875 L 1.4375 -0.296875 L 1.4375 0 L 0.265625 0 L 0.265625 -1.96875 L 0.59375 -1.96875 Z M 0.59375 -0.296875 "/></g></g></g><g fill="#be1e2d" fill-opacity="1"><g transform="translate(37.608516, 23.483925)"><g><path d="M 0.90625 -1.984375 C 1.15625 -1.984375 1.382812 -1.914062 1.59375 -1.78125 L 1.453125 -1.484375 C 1.253906 -1.609375 1.0625 -1.671875 0.875 -1.671875 C 0.78125 -1.671875 0.703125 -1.648438 0.640625 -1.609375 C 0.585938 -1.578125 0.5625 -1.523438 0.5625 -1.453125 C 0.5625 -1.390625 0.585938 -1.335938 0.640625 -1.296875 C 0.691406 -1.253906 0.753906 -1.222656 0.828125 -1.203125 C 0.910156 -1.179688 1 -1.148438 1.09375 -1.109375 C 1.1875 -1.078125 1.269531 -1.039062 1.34375 -1 C 1.425781 -0.96875 1.492188 -0.910156 1.546875 -0.828125 C 1.597656 -0.753906 1.625 -0.664062 1.625 -0.5625 C 1.625 -0.382812 1.550781 -0.242188 1.40625 -0.140625 C 1.269531 -0.0351562 1.09375 0.015625 0.875 0.015625 C 0.726562 0.015625 0.582031 -0.0078125 0.4375 -0.0625 C 0.300781 -0.125 0.179688 -0.203125 0.078125 -0.296875 L 0.21875 -0.59375 C 0.3125 -0.5 0.414062 -0.425781 0.53125 -0.375 C 0.65625 -0.320312 0.773438 -0.296875 0.890625 -0.296875 C 1.003906 -0.296875 1.09375 -0.316406 1.15625 -0.359375 C 1.21875 -0.398438 1.25 -0.460938 1.25 -0.546875 C 1.25 -0.609375 1.222656 -0.660156 1.171875 -0.703125 C 1.117188 -0.753906 1.050781 -0.789062 0.96875 -0.8125 C 0.894531 -0.832031 0.8125 -0.859375 0.71875 -0.890625 C 0.625 -0.921875 0.535156 -0.953125 0.453125 -0.984375 C 0.378906 -1.023438 0.316406 -1.082031 0.265625 -1.15625 C 0.210938 -1.226562 0.1875 -1.320312 0.1875 -1.4375 C 0.1875 -1.601562 0.25 -1.734375 0.375 -1.828125 C 0.507812 -1.929688 0.6875 -1.984375 0.90625 -1.984375 Z M 0.90625 -1.984375 "/></g></g></g><g fill="#be1e2d" fill-opacity="1"><g transform="translate(40.067353, 23.483925)"><g/></g></g><g fill="#be1e2d" fill-opacity="1"><g transform="translate(41.499913, 23.483925)"><g><path d="M 0.90625 -1.984375 C 1.15625 -1.984375 1.382812 -1.914062 1.59375 -1.78125 L 1.453125 -1.484375 C 1.253906 -1.609375 1.0625 -1.671875 0.875 -1.671875 C 0.78125 -1.671875 0.703125 -1.648438 0.640625 -1.609375 C 0.585938 -1.578125 0.5625 -1.523438 0.5625 -1.453125 C 0.5625 -1.390625 0.585938 -1.335938 0.640625 -1.296875 C 0.691406 -1.253906 0.753906 -1.222656 0.828125 -1.203125 C 0.910156 -1.179688 1 -1.148438 1.09375 -1.109375 C 1.1875 -1.078125 1.269531 -1.039062 1.34375 -1 C 1.425781 -0.96875 1.492188 -0.910156 1.546875 -0.828125 C 1.597656 -0.753906 1.625 -0.664062 1.625 -0.5625 C 1.625 -0.382812 1.550781 -0.242188 1.40625 -0.140625 C 1.269531 -0.0351562 1.09375 0.015625 0.875 0.015625 C 0.726562 0.015625 0.582031 -0.0078125 0.4375 -0.0625 C 0.300781 -0.125 0.179688 -0.203125 0.078125 -0.296875 L 0.21875 -0.59375 C 0.3125 -0.5 0.414062 -0.425781 0.53125 -0.375 C 0.65625 -0.320312 0.773438 -0.296875 0.890625 -0.296875 C 1.003906 -0.296875 1.09375 -0.316406 1.15625 -0.359375 C 1.21875 -0.398438 1.25 -0.460938 1.25 -0.546875 C 1.25 -0.609375 1.222656 -0.660156 1.171875 -0.703125 C 1.117188 -0.753906 1.050781 -0.789062 0.96875 -0.8125 C 0.894531 -0.832031 0.8125 -0.859375 0.71875 -0.890625 C 0.625 -0.921875 0.535156 -0.953125 0.453125 -0.984375 C 0.378906 -1.023438 0.316406 -1.082031 0.265625 -1.15625 C 0.210938 -1.226562 0.1875 -1.320312 0.1875 -1.4375 C 0.1875 -1.601562 0.25 -1.734375 0.375 -1.828125 C 0.507812 -1.929688 0.6875 -1.984375 0.90625 -1.984375 Z M 0.90625 -1.984375 "/></g></g></g><g fill="#be1e2d" fill-opacity="1"><g transform="translate(43.95875, 23.483925)"><g><path d="M 1.0625 -0.65625 L 1.0625 0 L 0.734375 0 L 0.734375 -0.640625 L 0 -1.96875 L 0.34375 -1.96875 L 0.90625 -1.015625 L 1.453125 -1.96875 L 1.78125 -1.96875 Z M 1.0625 -0.65625 "/></g></g></g><g fill="#be1e2d" fill-opacity="1"><g transform="translate(46.459879, 23.483925)"><g><path d="M 0.265625 -1.96875 L 1.0625 -1.96875 C 1.351562 -1.96875 1.59375 -1.875 1.78125 -1.6875 C 1.976562 -1.5 2.078125 -1.265625 2.078125 -0.984375 C 2.078125 -0.703125 1.976562 -0.46875 1.78125 -0.28125 C 1.59375 -0.09375 1.351562 0 1.0625 0 L 0.265625 0 Z M 0.59375 -1.671875 L 0.59375 -0.296875 L 1.078125 -0.296875 C 1.265625 -0.296875 1.421875 -0.359375 1.546875 -0.484375 C 1.679688 -0.617188 1.75 -0.785156 1.75 -0.984375 C 1.75 -1.179688 1.679688 -1.34375 1.546875 -1.46875 C 1.421875 -1.601562 1.257812 -1.671875 1.0625 -1.671875 Z M 0.59375 -1.671875 "/></g></g></g><g fill="#be1e2d" fill-opacity="1"><g transform="translate(49.350088, 23.483925)"><g><path d="M 1.96875 0 L 1.640625 0 L 0.59375 -1.40625 L 0.59375 0 L 0.265625 0 L 0.265625 -1.96875 L 0.578125 -1.96875 L 1.640625 -0.546875 L 1.640625 -1.96875 L 1.96875 -1.96875 Z M 1.96875 0 "/></g></g></g><g fill="#be1e2d" fill-opacity="1"><g transform="translate(52.288227, 23.483925)"><g><path d="M 1.671875 -1.671875 L 0.59375 -1.671875 L 0.59375 -1.140625 L 1.546875 -1.140625 L 1.546875 -0.84375 L 0.59375 -0.84375 L 0.59375 -0.296875 L 1.703125 -0.296875 L 1.703125 0 L 0.265625 0 L 0.265625 -1.96875 L 1.671875 -1.96875 Z M 1.671875 -1.671875 "/></g></g></g><g fill="#be1e2d" fill-opacity="1"><g transform="translate(54.842924, 23.483925)"><g><path d="M 1.0625 -0.65625 L 1.0625 0 L 0.734375 0 L 0.734375 -0.640625 L 0 -1.96875 L 0.34375 -1.96875 L 0.90625 -1.015625 L 1.453125 -1.96875 L 1.78125 -1.96875 Z M 1.0625 -0.65625 "/></g></g></g></svg>