<svg xmlns="http://www.w3.org/2000/svg" xmlns:xlink="http://www.w3.org/1999/xlink" width="500" zoomAndPan="magnify" viewBox="0 0 375 74.999997" height="100" preserveAspectRatio="xMidYMid meet" version="1.0"><defs><g/></defs><g fill="#5271ff" fill-opacity="1"><g transform="translate(8.55526, 41.398981)"><g><path d="M 52.054688 0 C 52.914062 0 53.347656 -0.429688 53.347656 -1.292969 L 53.347656 -20.304688 C 53.347656 -21.167969 52.914062 -21.597656 52.054688 -21.597656 L 38.359375 -21.597656 C 37.542969 -21.597656 37.113281 -21.167969 37.113281 -20.304688 L 37.113281 -5.652344 L 28.636719 -5.652344 C 24.710938 -5.652344 22.984375 -7.855469 22.984375 -14.367188 L 22.984375 -19.585938 C 22.984375 -25.476562 24.46875 -27.054688 28.636719 -27.054688 L 50.808594 -27.054688 C 51.671875 -27.054688 52.101562 -27.488281 52.101562 -28.347656 L 52.101562 -31.414062 C 52.101562 -32.226562 51.671875 -32.660156 50.808594 -32.660156 L 17.429688 -32.660156 C 7.996094 -32.660156 1.722656 -25.714844 1.722656 -16.328125 C 1.722656 -6.847656 8.378906 0 17.429688 0 Z M 52.054688 0 "/></g></g></g><g fill="#5271ff" fill-opacity="1"><g transform="translate(64.673888, 41.398981)"><g><path d="M 66.707031 0 C 67.472656 0 67.808594 -0.335938 67.808594 -0.765625 C 67.808594 -1.003906 67.714844 -1.390625 67.425781 -1.675781 L 37.832031 -31.75 C 37.257812 -32.324219 36.585938 -32.660156 35.722656 -32.660156 L 32.5625 -32.660156 C 31.796875 -32.660156 31.125 -32.324219 30.550781 -31.75 L 0.527344 -1.582031 C 0.238281 -1.339844 0.144531 -1.003906 0.144531 -0.8125 C 0.144531 -0.335938 0.527344 0 1.054688 0 L 32.707031 0 C 33.570312 0 34 -0.429688 34 -1.292969 L 34 -4.359375 C 34 -5.21875 33.570312 -5.652344 32.707031 -5.652344 L 10.964844 -5.652344 L 25.621094 -20.160156 L 44.152344 -0.957031 C 44.773438 -0.335938 45.539062 0 46.640625 0 Z M 66.707031 0 "/></g></g></g><g fill="#5271ff" fill-opacity="1"><g transform="translate(132.715337, 41.398981)"><g><path d="M 47.503906 0 C 48.320312 0 48.75 -0.429688 48.75 -1.292969 L 48.75 -4.359375 C 48.75 -5.21875 48.320312 -5.652344 47.503906 -5.652344 L 28.683594 -5.652344 C 24.46875 -5.652344 23.035156 -7.710938 23.035156 -12.691406 L 23.035156 -31.414062 C 23.035156 -32.226562 22.601562 -32.660156 21.742188 -32.660156 L 3.398438 -32.660156 C 2.539062 -32.660156 2.15625 -32.226562 2.15625 -31.414062 L 2.15625 -13.503906 C 2.15625 -5.652344 6.65625 0 16.1875 0 Z M 47.503906 0 "/></g></g></g><g fill="#5271ff" fill-opacity="1"><g transform="translate(181.84308, 41.398981)"><g><path d="M 66.707031 0 C 67.472656 0 67.808594 -0.335938 67.808594 -0.765625 C 67.808594 -1.003906 67.714844 -1.390625 67.425781 -1.675781 L 37.832031 -31.75 C 37.257812 -32.324219 36.585938 -32.660156 35.722656 -32.660156 L 32.5625 -32.660156 C 31.796875 -32.660156 31.125 -32.324219 30.550781 -31.75 L 0.527344 -1.582031 C 0.238281 -1.339844 0.144531 -1.003906 0.144531 -0.8125 C 0.144531 -0.335938 0.527344 0 1.054688 0 L 32.707031 0 C 33.570312 0 34 -0.429688 34 -1.292969 L 34 -4.359375 C 34 -5.21875 33.570312 -5.652344 32.707031 -5.652344 L 10.964844 -5.652344 L 25.621094 -20.160156 L 44.152344 -0.957031 C 44.773438 -0.335938 45.539062 0 46.640625 0 Z M 66.707031 0 "/></g></g></g><g fill="#5271ff" fill-opacity="1"><g transform="translate(249.88454, 41.398981)"><g><path d="M 60.195312 0 C 61.007812 0 61.441406 -0.382812 61.441406 -0.910156 C 61.441406 -1.195312 61.25 -1.53125 60.914062 -1.820312 L 40.175781 -20.351562 L 54.785156 -31.03125 C 55.117188 -31.269531 55.308594 -31.605469 55.308594 -31.894531 C 55.308594 -32.324219 54.976562 -32.660156 54.304688 -32.660156 L 50.808594 -32.660156 C 49.515625 -32.660156 48.605469 -32.324219 47.742188 -31.703125 L 36.539062 -23.609375 L 27.632812 -31.605469 C 26.863281 -32.277344 26.003906 -32.660156 24.855469 -32.660156 L 4.882812 -32.660156 C 4.070312 -32.660156 3.640625 -32.277344 3.640625 -31.796875 C 3.640625 -31.460938 3.78125 -31.125 4.117188 -30.839844 L 20.925781 -15.851562 L 1.53125 -1.675781 C 1.195312 -1.390625 1.003906 -1.054688 1.003906 -0.765625 C 1.003906 -0.335938 1.339844 0 2.011719 0 L 5.507812 0 C 6.800781 0 7.710938 -0.335938 8.570312 -0.957031 L 24.519531 -12.546875 L 37.398438 -1.054688 C 38.167969 -0.382812 39.078125 0 40.175781 0 Z M 60.195312 0 "/></g></g></g><g fill="#5271ff" fill-opacity="1"><g transform="translate(311.892743, 41.398981)"><g><path d="M 35.484375 0 C 36.347656 0 36.777344 -0.429688 36.777344 -1.292969 L 36.777344 -12.976562 L 54.113281 -31.320312 C 54.257812 -31.460938 54.351562 -31.75 54.351562 -31.941406 C 54.351562 -32.324219 54.066406 -32.660156 53.441406 -32.660156 L 50.664062 -32.660156 C 49.707031 -32.660156 49.226562 -32.46875 48.558594 -31.75 L 35.292969 -17.71875 L 22.554688 -31.703125 C 21.980469 -32.324219 21.261719 -32.660156 20.398438 -32.660156 L 1.101562 -32.660156 C 0.621094 -32.660156 0.144531 -32.371094 0.144531 -31.894531 C 0.144531 -31.605469 0.289062 -31.320312 0.574219 -31.03125 L 17.765625 -12.691406 L 17.765625 -1.292969 C 17.765625 -0.429688 18.195312 0 19.011719 0 Z M 35.484375 0 "/></g></g></g><g fill="#5271ff" fill-opacity="1"><g transform="translate(47.555257, 70.648978)"><g><path d="M 28.238281 0 C 28.511719 0 28.648438 -0.183594 28.648438 -0.367188 C 28.648438 -0.480469 28.601562 -0.640625 28.488281 -0.730469 L 22.183594 -7.195312 C 24.625 -7.5625 26.636719 -9.023438 26.636719 -11.605469 C 26.636719 -13.957031 24.558594 -15.582031 21.792969 -15.582031 L 1.828125 -15.582031 C 1.417969 -15.582031 1.210938 -15.375 1.210938 -14.984375 L 1.210938 -0.617188 C 1.210938 -0.207031 1.417969 0 1.828125 0 L 9.664062 0 C 10.074219 0 10.28125 -0.207031 10.28125 -0.617188 L 10.28125 -12.90625 L 15.375 -12.90625 C 16.8125 -12.90625 17.546875 -12.359375 17.546875 -11.375 C 17.546875 -10.394531 16.8125 -9.824219 15.375 -9.824219 L 12.246094 -9.824219 C 11.832031 -9.824219 11.652344 -9.617188 11.652344 -9.230469 L 11.652344 -8.519531 C 11.652344 -8.109375 11.789062 -7.925781 12.039062 -7.675781 L 18.914062 -0.617188 C 19.328125 -0.183594 19.851562 0 20.421875 0 Z M 28.238281 0 "/></g></g></g><g fill="#5271ff" fill-opacity="1"><g transform="translate(76.402056, 70.648978)"><g><path d="M 24.125 -7.152344 C 24.511719 -7.152344 24.71875 -7.289062 24.71875 -7.5625 L 24.71875 -9.414062 C 24.71875 -9.6875 24.511719 -9.824219 24.125 -9.824219 L 13.203125 -9.824219 C 12.792969 -9.824219 12.585938 -9.617188 12.585938 -9.230469 L 12.585938 -7.746094 C 12.585938 -7.355469 12.792969 -7.152344 13.203125 -7.152344 Z M 24.351562 0 C 24.765625 0 24.96875 -0.207031 24.96875 -0.617188 L 24.96875 -2.078125 C 24.96875 -2.488281 24.765625 -2.695312 24.351562 -2.695312 L 13.660156 -2.695312 C 11.789062 -2.695312 10.964844 -3.746094 10.964844 -6.851562 L 10.964844 -9.34375 C 10.964844 -12.152344 11.671875 -12.90625 13.660156 -12.90625 L 24.285156 -12.90625 C 24.695312 -12.90625 24.902344 -13.113281 24.902344 -13.523438 L 24.902344 -14.984375 C 24.902344 -15.375 24.695312 -15.582031 24.285156 -15.582031 L 8.316406 -15.582031 C 3.816406 -15.582031 0.824219 -12.269531 0.824219 -7.789062 C 0.824219 -3.265625 3.996094 0 8.316406 0 Z M 24.351562 0 "/></g></g></g><g fill="#5271ff" fill-opacity="1"><g transform="translate(102.23399, 70.648978)"><g><path d="M 22.664062 0 C 23.050781 0 23.257812 -0.207031 23.257812 -0.617188 L 23.257812 -2.078125 C 23.257812 -2.488281 23.050781 -2.695312 22.664062 -2.695312 L 13.683594 -2.695312 C 11.671875 -2.695312 10.988281 -3.679688 10.988281 -6.054688 L 10.988281 -14.984375 C 10.988281 -15.375 10.78125 -15.582031 10.371094 -15.582031 L 1.621094 -15.582031 C 1.210938 -15.582031 1.027344 -15.375 1.027344 -14.984375 L 1.027344 -6.441406 C 1.027344 -2.695312 3.175781 0 7.722656 0 Z M 22.664062 0 "/></g></g></g><g fill="#5271ff" fill-opacity="1"><g transform="translate(125.667734, 70.648978)"><g><path d="M 19.53125 0 C 24.03125 0 27.070312 -3.402344 27.070312 -7.789062 C 27.070312 -12.246094 24.078125 -15.582031 19.53125 -15.582031 L 8.339844 -15.582031 C 3.816406 -15.582031 0.824219 -12.3125 0.824219 -7.789062 C 0.824219 -3.382812 3.882812 0 8.339844 0 Z M 17.957031 -6.851562 C 17.957031 -3.746094 17.132812 -2.695312 15.261719 -2.695312 L 12.152344 -2.695312 C 10.417969 -2.695312 9.640625 -3.769531 9.640625 -6.851562 L 9.640625 -9.34375 C 9.640625 -12.109375 10.347656 -12.90625 12.152344 -12.90625 L 15.261719 -12.90625 C 17.246094 -12.90625 17.957031 -12.152344 17.957031 -9.34375 Z M 17.957031 -6.851562 "/></g></g></g><g fill="#5271ff" fill-opacity="1"><g transform="translate(153.532413, 70.648978)"><g><path d="M 23.964844 0 C 24.351562 0 24.558594 -0.207031 24.558594 -0.617188 L 24.558594 -2.078125 C 24.558594 -2.488281 24.351562 -2.695312 23.964844 -2.695312 L 13.660156 -2.695312 C 11.789062 -2.695312 10.964844 -3.746094 10.964844 -6.851562 L 10.964844 -9.34375 C 10.964844 -12.152344 11.671875 -12.90625 13.660156 -12.90625 L 23.871094 -12.90625 C 24.285156 -12.90625 24.488281 -13.113281 24.488281 -13.523438 L 24.488281 -14.984375 C 24.488281 -15.375 24.285156 -15.582031 23.871094 -15.582031 L 8.316406 -15.582031 C 3.816406 -15.582031 0.824219 -12.269531 0.824219 -7.789062 C 0.824219 -3.265625 3.996094 0 8.316406 0 Z M 23.964844 0 "/></g></g></g><g fill="#5271ff" fill-opacity="1"><g transform="translate(178.74767, 70.648978)"><g><path d="M 31.824219 0 C 32.1875 0 32.347656 -0.160156 32.347656 -0.367188 C 32.347656 -0.480469 32.304688 -0.664062 32.164062 -0.800781 L 18.046875 -15.144531 C 17.773438 -15.421875 17.453125 -15.582031 17.042969 -15.582031 L 15.535156 -15.582031 C 15.167969 -15.582031 14.847656 -15.421875 14.574219 -15.144531 L 0.25 -0.753906 C 0.113281 -0.640625 0.0703125 -0.480469 0.0703125 -0.386719 C 0.0703125 -0.160156 0.25 0 0.503906 0 L 15.601562 0 C 16.015625 0 16.21875 -0.207031 16.21875 -0.617188 L 16.21875 -2.078125 C 16.21875 -2.488281 16.015625 -2.695312 15.601562 -2.695312 L 5.230469 -2.695312 L 12.222656 -9.617188 L 21.0625 -0.457031 C 21.359375 -0.160156 21.726562 0 22.25 0 Z M 31.824219 0 "/></g></g></g><g fill="#5271ff" fill-opacity="1"><g transform="translate(211.203169, 70.648978)"><g><path d="M 15.945312 0 C 16.21875 0 16.355469 -0.0898438 16.355469 -0.296875 L 16.355469 -12.90625 L 23.050781 -12.90625 C 23.347656 -12.90625 23.484375 -12.976562 23.484375 -13.160156 L 23.484375 -15.285156 C 23.484375 -15.488281 23.347656 -15.582031 23.050781 -15.582031 L 0.640625 -15.582031 C 0.34375 -15.582031 0.207031 -15.488281 0.207031 -15.285156 L 0.207031 -13.160156 C 0.207031 -12.976562 0.34375 -12.90625 0.640625 -12.90625 L 7.308594 -12.90625 L 7.308594 -0.296875 C 7.308594 -0.0898438 7.449219 0 7.746094 0 Z M 15.945312 0 "/></g></g></g><g fill="#5271ff" fill-opacity="1"><g transform="translate(234.865303, 70.648978)"><g><path d="M 9.800781 0 C 10.1875 0 10.394531 -0.207031 10.394531 -0.617188 L 10.394531 -14.984375 C 10.394531 -15.375 10.1875 -15.582031 9.800781 -15.582031 L 1.917969 -15.582031 C 1.53125 -15.582031 1.324219 -15.375 1.324219 -14.984375 L 1.324219 -0.617188 C 1.324219 -0.207031 1.53125 0 1.917969 0 Z M 9.800781 0 "/></g></g></g><g fill="#5271ff" fill-opacity="1"><g transform="translate(246.582187, 70.648978)"><g><path d="M 19.53125 0 C 24.03125 0 27.070312 -3.402344 27.070312 -7.789062 C 27.070312 -12.246094 24.078125 -15.582031 19.53125 -15.582031 L 8.339844 -15.582031 C 3.816406 -15.582031 0.824219 -12.3125 0.824219 -7.789062 C 0.824219 -3.382812 3.882812 0 8.339844 0 Z M 17.957031 -6.851562 C 17.957031 -3.746094 17.132812 -2.695312 15.261719 -2.695312 L 12.152344 -2.695312 C 10.417969 -2.695312 9.640625 -3.769531 9.640625 -6.851562 L 9.640625 -9.34375 C 9.640625 -12.109375 10.347656 -12.90625 12.152344 -12.90625 L 15.261719 -12.90625 C 17.246094 -12.90625 17.957031 -12.152344 17.957031 -9.34375 Z M 17.957031 -6.851562 "/></g></g></g><g fill="#5271ff" fill-opacity="1"><g transform="translate(274.446854, 70.648978)"><g><path d="M 27.550781 0 C 27.960938 0 28.167969 -0.207031 28.167969 -0.617188 L 28.167969 -14.984375 C 28.167969 -15.375 27.960938 -15.582031 27.550781 -15.582031 L 24.605469 -15.582031 C 24.191406 -15.582031 23.988281 -15.375 23.988281 -14.984375 L 23.988281 -8.589844 L 6.992188 -15.144531 C 6.007812 -15.535156 5.550781 -15.582031 4.546875 -15.582031 L 1.734375 -15.582031 C 1.324219 -15.582031 1.121094 -15.375 1.121094 -14.984375 L 1.121094 -0.617188 C 1.121094 -0.207031 1.324219 0 1.734375 0 L 4.683594 0 C 5.09375 0 5.300781 -0.207031 5.300781 -0.617188 L 5.300781 -7.265625 L 23.507812 -0.457031 C 24.511719 -0.0898438 25.0625 0 25.976562 0 Z M 27.550781 0 "/></g></g></g><g fill="#5271ff" fill-opacity="1"><g transform="translate(303.727614, 70.648978)"><g><path d="M 18.640625 0 C 21.566406 0 23.050781 -1.804688 23.050781 -3.839844 C 23.050781 -5.503906 22.617188 -6.761719 20.261719 -7.859375 L 9.527344 -12.90625 L 21.910156 -12.90625 C 22.320312 -12.90625 22.523438 -13.113281 22.523438 -13.523438 L 22.523438 -14.984375 C 22.523438 -15.375 22.320312 -15.582031 21.910156 -15.582031 L 5.09375 -15.582031 C 2.148438 -15.582031 0.664062 -13.777344 0.664062 -11.742188 C 0.664062 -10.097656 1.121094 -8.839844 3.449219 -7.746094 L 14.210938 -2.695312 L 1.394531 -2.695312 C 1.003906 -2.695312 0.800781 -2.488281 0.800781 -2.078125 L 0.800781 -0.617188 C 0.800781 -0.207031 1.003906 0 1.394531 0 Z M 18.640625 0 "/></g></g></g></svg>